<?xml version="1.0" standalone="no"?>
<!DOCTYPE svg PUBLIC "-//W3C//DTD SVG 20010904//EN"
 "http://www.w3.org/TR/2001/REC-SVG-20010904/DTD/svg10.dtd">
<svg version="1.0" xmlns="http://www.w3.org/2000/svg"
 width="1127.000000pt" height="885.000000pt" viewBox="0 0 1127.000000 885.000000"
 preserveAspectRatio="xMidYMid meet">
<metadata>
Created by potrace 1.16, written by Peter Selinger 2001-2019
</metadata>
<g transform="translate(0.000000,885.000000) scale(0.100000,-0.100000)"
fill="#000000" stroke="none">
<path d="M5961 8594 c-47 -8 -110 -26 -140 -40 l-56 -26 42 -15 c48 -17 64
-40 113 -164 29 -71 34 -97 34 -169 1 -71 -4 -94 -25 -140 -14 -31 -40 -72
-58 -92 -17 -20 -31 -38 -31 -41 0 -3 26 6 58 20 51 24 69 27 172 27 97 0 124
-3 175 -23 39 -15 96 -26 162 -31 126 -10 190 -37 271 -113 31 -30 71 -62 89
-71 32 -16 153 -23 153 -8 0 4 -7 29 -15 56 -18 58 -20 267 -4 366 5 36 12 79
14 95 3 17 10 49 16 73 7 23 10 44 8 45 -2 2 -40 13 -84 25 -75 21 -144 53
-360 165 -52 27 -120 53 -160 62 -87 18 -262 18 -374 -1z"/>
<path d="M5666 8534 c-3 -33 -9 -378 -12 -769 -4 -390 -8 -712 -11 -715 -2 -3
-12 -5 -21 -5 -15 0 -17 -14 -19 -105 -4 -152 -2 -148 -65 -144 -29 2 -56 3
-60 4 -5 0 -8 54 -8 119 l0 119 -91 7 c-57 5 -94 4 -101 -3 -6 -6 -8 -59 -6
-131 l3 -122 -60 3 -60 3 -3 115 c-1 63 -4 121 -7 128 -3 8 -33 12 -101 12
l-96 0 3 -127 4 -128 -60 0 -60 0 -3 128 -3 127 -82 0 c-136 0 -127 9 -127
-140 0 -83 -4 -130 -11 -132 -12 -4 39 -239 70 -323 11 -27 28 -79 39 -115 20
-64 20 -96 26 -1585 3 -836 5 -1521 6 -1523 0 -1 154 -1 343 0 l342 3 1 380 0
380 30 55 c19 36 45 65 74 85 43 28 50 30 145 30 88 0 107 -3 150 -26 30 -15
62 -42 80 -68 l30 -43 3 -399 3 -399 1785 0 c982 0 1784 3 1782 8 -2 4 -58
117 -125 252 -73 149 -132 255 -149 271 -48 43 -103 50 -378 48 -138 -1 -254
-4 -258 -6 -4 -2 -1 -21 7 -43 8 -22 19 -67 25 -101 6 -33 14 -67 17 -75 5
-13 -10 -14 -93 -12 l-98 3 -18 103 c-9 57 -22 110 -29 118 -10 12 -88 14
-490 14 l-478 0 4 -27 c3 -16 9 -62 15 -103 6 -41 13 -82 15 -90 4 -13 -12
-15 -108 -13 l-112 2 -22 88 c-12 48 -24 100 -27 116 l-6 27 -263 1 c-144 1
-268 1 -274 0 -25 -3 -12 31 49 132 222 369 446 630 673 784 187 126 287 175
347 171 41 -3 43 -5 75 -68 68 -139 122 -278 132 -342 11 -64 4 -163 -15 -213
-13 -35 75 56 106 110 49 86 56 194 20 325 -15 56 -61 163 -74 172 -24 16 4
17 50 1 72 -24 111 -52 183 -129 83 -88 165 -215 199 -306 22 -60 27 -90 27
-170 0 -53 3 -94 6 -92 14 8 79 151 88 194 24 104 3 259 -50 362 -39 76 -162
186 -253 226 -16 7 -27 14 -25 16 8 8 186 -23 230 -39 145 -54 223 -111 257
-188 l19 -42 8 29 c14 53 -9 181 -42 231 -85 131 -279 212 -481 203 -86 -4
-115 -11 -197 -43 -18 -8 -18 -6 3 17 34 37 196 123 277 147 131 38 200 46
267 32 33 -7 62 -11 64 -9 7 8 -63 77 -104 103 -49 30 -152 55 -227 55 -98 0
-218 -56 -310 -145 l-45 -44 0 55 c0 63 -22 148 -55 214 -34 66 -130 167 -186
196 -142 71 -306 65 -434 -18 l-50 -33 85 -6 c118 -8 193 -32 281 -93 83 -57
213 -303 197 -372 -4 -17 -6 -16 -15 6 -15 36 -78 97 -146 141 -141 92 -292
104 -433 34 -81 -39 -152 -105 -186 -169 -19 -37 -19 -38 -1 -31 10 4 58 18
107 32 106 29 193 26 318 -13 80 -25 103 -41 200 -131 31 -30 76 -62 100 -73
25 -11 36 -21 28 -23 -179 -48 -411 -174 -585 -318 -152 -125 -340 -334 -444
-494 -29 -44 -54 -82 -57 -84 -2 -3 -3 490 -2 1095 l3 1099 22 50 c12 28 36
104 53 170 18 66 39 138 46 160 18 52 18 75 -1 75 -13 0 -15 23 -15 145 l0
146 -102 -3 -101 -3 -1 -50 c-1 -27 -3 -85 -4 -127 l-2 -78 -61 0 -61 0 4 130
3 131 -100 -3 -100 -3 -5 -125 -5 -125 -60 0 -60 0 0 125 0 125 -95 0 -95 0
-3 -127 -3 -128 -59 0 -59 0 -3 128 -3 127 -37 3 -38 3 0 112 c-2 276 -10 953
-15 1166 -5 236 -17 317 -29 205z m-935 -1879 c4 -33 10 -90 14 -127 5 -46 4
-68 -3 -68 -14 0 -29 48 -42 135 -6 39 -13 83 -15 98 -4 25 -2 28 18 25 19 -3
23 -11 28 -63z m84 54 c9 -14 37 -240 31 -247 -3 -2 -12 -2 -19 1 -10 4 -17
29 -22 79 -4 40 -11 92 -16 116 -9 43 -6 62 11 62 5 0 12 -5 15 -11z m107 -74
c4 -44 9 -101 12 -127 4 -37 2 -48 -9 -48 -9 0 -16 16 -20 48 -3 26 -10 75
-15 108 -14 89 -13 106 8 102 14 -3 18 -18 24 -83z m82 33 c18 -174 18 -208 2
-208 -22 0 -23 6 -31 143 -5 99 -4 117 9 117 10 0 16 -15 20 -52z m90 -5 c17
-174 18 -191 6 -198 -22 -13 -28 9 -34 133 -6 103 -5 122 7 122 11 0 17 -16
21 -57z m90 15 c8 -62 10 -207 2 -215 -16 -16 -24 20 -30 135 -5 102 -4 122 8
122 9 0 16 -15 20 -42z m87 25 c1 -10 2 -43 4 -73 1 -30 4 -80 6 -110 2 -43 0
-55 -11 -55 -12 0 -17 22 -22 100 -4 55 -9 112 -11 128 -3 21 1 27 15 27 10 0
18 -8 19 -17z m95 -98 c3 -60 6 -114 7 -119 1 -6 -5 -11 -14 -13 -22 -5 -29
34 -29 154 0 80 2 94 16 91 12 -2 16 -24 20 -113z m94 28 c0 -49 3 -105 6
-125 6 -34 4 -38 -15 -38 -17 0 -21 6 -21 33 0 19 -3 75 -6 125 -7 89 -6 92
15 92 20 0 21 -5 21 -87z m90 39 c0 -27 3 -83 6 -125 7 -73 6 -77 -14 -77 -20
0 -21 6 -24 125 -3 114 -1 125 15 125 14 0 17 -9 17 -48z m100 -76 c0 -78 -4
-127 -11 -131 -6 -4 -12 -5 -15 -2 -3 2 -7 61 -11 131 -6 124 -6 126 16 126
20 0 21 -4 21 -124z m100 0 c0 -97 -3 -125 -14 -129 -8 -3 -17 -3 -20 0 -3 4
-6 62 -6 130 0 116 1 123 20 123 19 0 20 -7 20 -124z m100 -2 c0 -114 -2 -125
-17 -122 -16 3 -18 18 -21 112 -3 120 0 136 23 136 13 0 15 -19 15 -126z m100
89 c0 -21 3 -77 7 -125 6 -88 5 -88 -18 -88 -24 0 -24 1 -27 116 -2 121 0 134
24 134 10 0 14 -12 14 -37z m110 -88 c0 -118 -1 -125 -20 -125 -19 0 -20 7
-20 125 0 118 1 125 20 125 19 0 20 -7 20 -125z m94 34 c-3 -167 -3 -161 -21
-157 -16 3 -18 15 -14 118 3 121 6 133 24 127 8 -2 12 -32 11 -88z m105 14
c-5 -38 -8 -92 -8 -120 -1 -47 -3 -53 -22 -53 -21 0 -22 3 -15 77 3 42 6 96 6
120 0 38 3 43 23 43 23 0 23 -2 16 -67z m104 -45 c-6 -62 -12 -116 -13 -120 0
-5 -9 -8 -21 -8 -20 0 -20 3 -13 93 4 50 8 99 10 107 1 8 3 21 3 28 1 6 11 12
24 12 l23 0 -13 -112z m127 99 c0 -7 -4 -38 -10 -68 -5 -30 -11 -76 -13 -104
-3 -43 -7 -50 -27 -53 -23 -4 -23 -3 -16 70 15 163 16 168 42 168 13 0 24 -6
24 -13z m119 1 c0 -7 -8 -60 -17 -118 -16 -97 -19 -105 -41 -108 -24 -4 -24
-3 -17 55 4 32 12 86 18 121 10 55 14 62 35 62 13 0 23 -6 22 -12z m121 0 c0
-7 -13 -60 -29 -118 -20 -75 -33 -106 -45 -108 -20 -4 -20 -5 4 114 25 124 25
124 50 124 11 0 20 -6 20 -12z m-1933 -280 c4 -7 9 -23 11 -35 2 -19 -2 -23
-23 -23 -24 0 -45 29 -45 61 0 14 48 11 57 -3z m83 -7 c5 -11 10 -27 10 -36 0
-24 -54 -16 -58 8 -9 44 28 65 48 28z m95 -23 c7 -26 5 -28 -23 -28 -22 0 -31
6 -36 23 -9 33 -8 35 17 39 28 5 34 0 42 -34z m413 4 c3 -31 2 -33 -25 -30
-21 2 -29 9 -31 27 -4 25 13 43 38 38 9 -1 16 -15 18 -35z m94 3 c4 -19 0 -24
-22 -27 -37 -6 -50 0 -50 22 0 42 65 46 72 5z m82 19 c27 -27 20 -44 -19 -44
-30 0 -35 3 -35 24 0 15 7 26 18 29 9 3 18 5 19 6 1 0 9 -6 17 -15z m98 -19
c4 -20 1 -26 -18 -31 -36 -9 -52 1 -47 30 3 16 13 26 27 28 29 5 33 2 38 -27z
m110 11 c18 -27 7 -36 -42 -36 -43 0 -49 2 -43 18 13 38 64 49 85 18z m96 -7
c3 -22 -2 -27 -25 -32 -35 -7 -43 -2 -43 28 0 43 63 47 68 4z m107 1 l16 -30
-36 0 c-19 0 -38 -1 -42 -2 -13 -5 -15 32 -3 47 20 24 48 17 65 -15z m93 3 c4
-30 20 -29 32 2 12 30 50 35 50 6 0 -11 2 -26 6 -34 4 -12 -9 -14 -75 -13 -85
1 -92 6 -70 47 14 27 53 21 57 -8z m182 8 c0 -11 3 -26 6 -35 5 -13 -2 -16
-36 -16 -38 0 -41 2 -34 23 10 32 24 47 45 47 12 0 19 -7 19 -19z m100 7 c0
-7 3 -23 6 -35 6 -21 3 -23 -36 -23 -38 0 -41 2 -35 23 8 25 32 47 52 47 7 0
13 -6 13 -12z m-1298 -23 c6 -29 2 -35 -28 -35 -15 0 -23 7 -26 25 -6 29 -2
35 28 35 15 0 23 -7 26 -25z m80 0 c6 -30 2 -35 -29 -35 -19 0 -23 5 -23 30 0
25 4 30 24 30 17 0 25 -7 28 -25z m81 3 c8 -28 1 -38 -28 -38 -25 0 -38 21
-29 45 9 24 51 19 57 -7z m91 6 c13 -34 7 -44 -29 -44 -32 0 -35 2 -35 30 0
26 3 30 29 30 17 0 31 -6 35 -16z m1166 -14 c0 -29 -2 -30 -45 -30 -35 0 -43
3 -40 15 3 8 7 22 10 30 3 10 17 15 40 15 32 0 35 -2 35 -30z m118 -2 c3 -27
2 -28 -42 -28 -48 0 -49 1 -40 38 6 19 12 23 43 20 31 -3 36 -7 39 -30z m75 5
c8 -44 -11 -56 -46 -30 -16 11 -16 14 -2 35 22 30 42 28 48 -5z m-865 -430
c14 -11 40 -36 56 -57 l31 -38 0 -251 0 -252 -192 -3 -193 -3 0 234 0 235 28
53 c31 59 89 106 137 111 47 5 105 -8 133 -29z"/>
<path d="M3829 5800 c-119 -30 -211 -103 -276 -218 -42 -74 -83 -201 -83 -254
0 -21 -4 -38 -10 -38 -5 0 -10 6 -10 14 0 21 -61 75 -131 118 -71 43 -179 71
-241 62 -43 -6 -139 -34 -148 -44 -3 -3 -21 -14 -40 -24 -45 -25 -100 -66
-100 -75 0 -4 39 -5 88 -3 143 7 339 -55 455 -143 26 -20 47 -40 47 -44 0 -5
-32 0 -72 10 -129 34 -300 19 -414 -37 -123 -60 -201 -170 -211 -298 -4 -49
-3 -66 7 -66 7 0 41 26 75 58 116 109 200 142 354 141 l106 0 -65 -17 c-68
-18 -158 -76 -200 -129 -12 -15 -40 -66 -63 -113 -40 -82 -41 -88 -40 -180 1
-110 34 -227 87 -306 36 -55 68 -75 36 -22 -28 47 -26 110 10 221 28 86 92
208 159 298 36 49 134 134 197 169 66 38 79 39 59 1 -45 -89 -75 -211 -75
-312 0 -69 29 -152 76 -224 35 -54 84 -109 90 -103 2 2 -8 31 -21 64 -29 70
-30 82 -9 192 21 112 35 150 98 262 30 52 57 110 61 128 4 17 11 32 16 32 22
0 146 -53 211 -91 195 -112 423 -307 551 -472 90 -115 191 -272 249 -386 l49
-96 -3 156 -3 156 -44 64 c-154 222 -357 420 -594 579 -85 56 -235 130 -307
151 -25 7 -49 16 -53 19 -5 4 20 32 55 61 35 30 81 74 103 100 22 25 48 51 58
58 10 6 73 21 140 32 140 24 211 18 310 -26 70 -31 72 -21 15 63 -117 167
-332 218 -528 123 -61 -29 -176 -132 -193 -171 -8 -20 -11 -22 -14 -7 -7 26
43 169 81 234 43 73 117 147 178 179 58 30 157 54 221 54 26 0 47 4 47 9 0 14
-60 58 -104 76 -45 19 -186 28 -237 15z"/>
<path d="M4150 3812 c-9 -2 -28 -44 -50 -112 l-35 -110 -150 0 -150 0 31 19
c31 19 84 112 100 175 l6 26 -444 0 -445 0 -11 -48 c-21 -94 -52 -162 -75
-167 -49 -10 -226 -11 -218 0 4 5 21 51 36 100 15 50 30 96 33 103 3 9 -53 12
-261 12 -145 0 -278 -3 -295 -6 -53 -11 -108 -68 -151 -157 -120 -249 -191
-403 -191 -413 0 -2 632 -4 1405 -4 l1405 0 -2 293 -3 292 -260 0 c-143 0
-267 -1 -275 -3z"/>
<path d="M8515 3710 c4 -19 12 -39 17 -45 7 -7 9 1 4 25 -3 19 -11 39 -17 45
-8 7 -9 0 -4 -25z"/>
<path d="M2602 2567 c-11 -12 -42 -69 -67 -127 -26 -58 -53 -118 -60 -135 -14
-29 -130 -299 -282 -653 -40 -95 -71 -177 -68 -182 9 -15 192 -13 202 3 4 6
24 50 44 97 l35 85 230 1 229 1 41 -96 41 -96 106 -3 c70 -2 107 1 107 8 0 5
-18 54 -41 108 -97 229 -274 645 -316 737 -24 55 -54 122 -66 150 -21 46 -87
125 -105 125 -5 0 -18 -10 -30 -23z m70 -434 c15 -38 47 -117 72 -178 26 -60
46 -111 46 -112 0 -2 -67 -3 -150 -3 -94 0 -150 4 -150 10 0 6 9 29 19 53 22
48 68 156 101 240 13 31 26 57 29 57 4 0 18 -30 33 -67z"/>
<path d="M4770 2574 c-160 -34 -319 -154 -385 -288 -66 -134 -80 -246 -49
-393 22 -110 64 -186 148 -268 77 -76 158 -122 262 -149 72 -19 223 -21 310
-5 62 11 183 63 234 99 l30 21 0 240 0 239 -200 0 -200 0 0 -89 0 -89 73 -7
c39 -4 79 -5 87 -3 12 2 15 -12 15 -87 l0 -89 -70 -19 c-266 -70 -485 92 -474
351 10 198 163 346 359 346 94 -1 144 -15 210 -59 29 -19 53 -35 55 -35 8 0
95 148 95 162 0 19 -79 71 -140 93 -125 45 -245 54 -360 29z"/>
<path d="M6914 2581 c-119 -19 -234 -100 -274 -194 -17 -38 -23 -71 -23 -123
1 -144 76 -227 287 -321 199 -88 249 -134 224 -209 -18 -53 -53 -75 -131 -81
-79 -7 -182 21 -269 73 -32 18 -59 30 -62 26 -8 -14 -46 -163 -46 -181 0 -13
19 -27 68 -49 111 -49 176 -64 281 -65 143 0 213 22 296 95 124 110 133 301
19 427 -47 52 -92 79 -220 131 -188 75 -224 103 -224 176 0 35 5 47 30 67 65
55 202 42 351 -34 58 -29 69 -29 69 1 0 9 9 47 21 84 25 78 23 82 -55 120
-110 54 -232 74 -342 57z"/>
<path d="M9056 2571 c-7 -11 -7 -884 0 -993 l7 -108 103 0 104 0 2 308 c1 169
1 317 0 330 0 12 3 22 7 22 4 0 45 -39 92 -87 46 -49 195 -202 331 -340 215
-219 252 -253 278 -253 l30 0 0 158 c0 86 1 310 1 497 1 187 1 368 0 403 l-1
62 -105 0 -105 0 -2 -302 c-1 -167 -1 -318 -1 -335 1 -18 0 -33 -1 -33 -3 0
-89 87 -416 420 -36 37 -105 108 -154 160 -79 82 -94 93 -128 95 -21 2 -40 0
-42 -4z"/>
<path d="M10290 2523 c0 -29 0 -277 0 -550 l0 -498 375 -3 375 -2 0 100 0 100
-82 1 c-46 0 -167 0 -270 0 l-188 -2 0 131 0 131 178 -4 c97 -2 200 -2 228 1
l51 5 -1 96 -1 96 -227 -3 -228 -3 0 126 c0 93 3 125 13 126 6 0 123 0 259 -1
136 -1 251 1 255 3 4 3 6 49 3 102 l-5 97 -367 1 -368 2 0 -52z"/>
<path d="M3242 2178 c3 -376 4 -395 25 -451 31 -81 80 -145 148 -193 78 -55
134 -75 231 -81 199 -14 360 79 442 254 l27 58 5 340 c3 187 4 368 2 403 l-3
62 -104 0 -104 0 -3 -372 c-3 -368 -3 -374 -26 -417 -41 -78 -97 -109 -198
-110 -102 -2 -164 37 -208 129 -20 43 -21 58 -21 405 l0 360 -108 3 -108 3 3
-393z"/>
<path d="M5535 2559 c-13 -20 -18 -652 -6 -730 38 -242 228 -392 478 -376 181
11 337 135 387 309 14 46 17 115 20 365 1 169 1 338 -2 376 l-5 67 -106 0
-106 0 3 -350 c3 -296 1 -358 -12 -404 -46 -158 -248 -209 -367 -93 -74 70
-74 72 -76 442 -1 182 -3 347 -3 368 l0 37 -99 0 c-61 0 -102 -4 -106 -11z"/>
<path d="M7460 2468 l0 -98 68 -2 c37 -1 108 -2 157 -3 l90 -2 5 -444 5 -444
107 -3 108 -3 2 446 3 447 155 0 c85 1 161 3 168 6 8 3 12 33 12 102 l0 98
-440 -1 -440 -2 0 -97z"/>
<path d="M8530 2020 l0 -550 110 0 110 0 0 550 0 550 -110 0 -110 0 0 -550z"/>
<path d="M425 2539 c-144 -50 -219 -146 -220 -284 0 -91 23 -152 80 -204 49
-45 89 -67 222 -121 130 -53 181 -85 200 -125 47 -100 -50 -176 -198 -155 -60
9 -190 62 -210 86 -6 8 -17 14 -23 14 -16 0 -87 -155 -80 -174 8 -20 116 -71
204 -95 128 -36 313 -24 386 24 50 33 106 89 132 134 24 40 27 57 27 131 0 98
-18 141 -82 204 -37 37 -178 111 -258 136 -78 25 -155 70 -175 103 -24 39 -25
59 -4 98 40 78 206 79 357 3 26 -14 52 -22 56 -20 5 3 19 32 31 63 13 32 27
62 32 68 32 36 -15 74 -137 110 -114 33 -251 34 -340 4z"/>
<path d="M1038 2469 c-2 -22 -1 -62 2 -87 l5 -47 137 -5 136 -5 1 -418 c0
-230 3 -423 6 -428 8 -12 142 -12 166 1 18 10 19 26 19 430 l0 419 138 3 137
3 3 88 3 87 -375 0 -374 0 -4 -41z"/>
<path d="M1734 1666 c-43 -19 -74 -62 -74 -102 0 -70 87 -124 165 -103 106 29
96 178 -13 209 -45 12 -40 12 -78 -4z"/>
<path d="M5675 839 c-85 -21 -179 -112 -205 -199 -16 -52 -13 -145 5 -201 20
-60 82 -126 150 -159 42 -21 64 -25 135 -24 61 0 94 5 118 18 54 28 112 86
140 140 22 43 26 64 26 131 -1 92 -25 153 -87 216 -68 70 -185 102 -282 78z
m151 -127 c127 -69 132 -255 9 -328 -156 -91 -324 101 -231 261 16 27 42 53
64 65 46 24 116 25 158 2z"/>
<path d="M7045 837 c-66 -22 -99 -43 -142 -90 -106 -115 -96 -323 20 -423 60
-51 104 -67 193 -72 96 -5 147 13 217 77 152 140 110 401 -77 490 -59 27 -157
36 -211 18z m127 -107 c78 -22 128 -87 129 -168 2 -69 -16 -115 -61 -156 -86
-77 -214 -52 -267 54 -54 105 -6 226 103 265 48 17 50 17 96 5z"/>
<path d="M7845 830 c-106 -34 -181 -118 -204 -228 -14 -65 -6 -121 26 -189 67
-146 263 -209 422 -138 l61 28 0 131 0 131 -105 0 -105 0 0 -51 0 -52 46 6 45
5 -3 -54 -3 -54 -45 -3 c-120 -9 -220 77 -220 188 0 142 175 235 294 156 14
-9 30 -16 35 -16 12 0 51 72 51 93 0 23 -98 59 -170 63 -46 3 -83 -2 -125 -16z"/>
<path d="M9606 843 c-70 -20 -126 -87 -126 -153 0 -46 31 -111 64 -138 15 -11
58 -33 96 -48 80 -31 110 -55 110 -89 0 -53 -95 -73 -170 -35 -49 25 -58 25
-81 -2 -26 -29 -24 -53 9 -78 62 -49 158 -64 245 -38 88 26 139 115 117 200
-16 59 -52 89 -158 133 -113 47 -134 75 -93 126 25 31 106 31 149 0 17 -11 32
-21 35 -21 11 0 58 80 52 90 -3 5 -25 20 -48 32 -42 21 -158 34 -201 21z"/>
<path d="M1840 785 l0 -55 85 0 86 0 -1 -217 c0 -120 -1 -226 0 -236 0 -16 8
-18 58 -15 l57 3 3 233 2 232 85 0 85 0 0 55 0 55 -230 0 -230 0 0 -55z"/>
<path d="M2540 550 c0 -159 4 -290 8 -290 4 0 84 -2 178 -5 93 -2 175 -1 183
4 8 6 15 27 15 53 l1 43 -132 3 -133 3 0 64 0 65 88 2 c48 1 99 1 115 0 26 -1
27 1 27 53 l0 54 -117 3 -118 3 1 40 c3 94 -13 84 142 87 l137 3 3 53 3 52
-200 0 -201 0 0 -290z"/>
<path d="M3380 833 c-73 -24 -144 -82 -178 -146 -24 -46 -27 -63 -27 -147 0
-104 9 -129 67 -195 53 -61 110 -88 199 -93 59 -3 90 0 129 14 44 16 110 65
110 83 0 3 -13 21 -29 40 l-29 34 -28 -20 c-50 -34 -92 -46 -144 -41 -165 16
-218 243 -78 335 56 38 156 40 205 6 17 -13 35 -23 40 -23 5 0 20 18 32 41 27
48 24 52 -53 93 -41 22 -62 26 -125 25 -42 0 -83 -3 -91 -6z"/>
<path d="M3930 550 l0 -290 60 0 60 0 0 119 0 118 130 2 130 1 0 -119 0 -118
48 -6 c26 -3 50 -2 53 1 4 4 10 136 14 295 l7 287 -61 0 -60 0 -3 -112 -3
-113 -128 0 -128 0 -2 110 -3 110 -57 3 -57 3 0 -291z"/>
<path d="M4712 828 c-9 -9 -12 -87 -12 -289 l0 -277 48 -4 c26 -3 53 -2 60 0
10 3 12 43 10 178 -2 96 -1 174 2 174 3 0 81 -79 174 -175 127 -132 173 -175
192 -175 l24 0 0 285 0 285 -24 0 c-13 0 -38 -3 -55 -6 l-31 -6 0 -159 c0 -88
-3 -159 -7 -159 -5 0 -82 76 -173 170 -91 94 -172 170 -180 170 -9 0 -21 -5
-28 -12z"/>
<path d="M6300 550 l0 -290 180 0 180 0 6 24 c3 13 4 37 2 52 l-3 29 -122 3
-123 3 0 234 0 235 -60 0 -60 0 0 -290z"/>
<path d="M8420 544 l0 -296 23 6 c12 3 39 6 60 6 l37 0 -2 288 -3 287 -57 3
-58 3 0 -297z"/>
<path d="M8840 551 c0 -160 3 -291 8 -293 4 -2 91 -2 195 0 l187 3 0 54 0 55
-135 0 -136 0 3 63 3 62 115 2 115 1 3 51 3 50 -118 3 -118 3 -3 63 -3 62 141
0 140 0 0 55 0 55 -200 0 -200 0 0 -289z"/>
</g>
</svg>
